<svg width="1590" height="285" viewBox="0 0 1590 285" fill="none" xmlns="http://www.w3.org/2000/svg">
<path d="M38.0327 175.857V138.863H95.2771C110.724 138.863 122.731 134.774 131.298 126.596C139.995 118.418 144.344 106.93 144.344 92.1325C144.344 75.9068 139.995 63.4454 131.298 54.7484C122.731 45.9216 110.724 41.5082 95.2771 41.5082H38.8116L34.1385 4.51358H95.2771C123.964 4.51358 146.096 11.7827 161.673 26.321C177.379 40.8592 185.233 61.4983 185.233 88.2383C185.233 116.017 177.379 137.565 161.673 152.882C146.096 168.199 123.964 175.857 95.2771 175.857H38.0327ZM0.259225 281V4.51358H40.7586V281H0.259225ZM148.627 281L86.7099 150.935H129.546L195.357 281H148.627ZM237.804 281V4.51358H278.303V281H237.804ZM237.804 281V244.005H420.83V281H237.804ZM237.804 161.059V124.065H385.783V161.059H237.804ZM237.804 41.5082V4.51358H420.83V41.5082H237.804ZM547.586 284.894C531.879 284.894 517.146 283.596 503.387 281C489.757 278.534 477.101 274.769 465.418 269.707L470.481 230.376C484.759 236.477 498.519 241.15 511.759 244.395C525.129 247.51 538.11 249.068 550.701 249.068C568.874 249.068 582.373 245.888 591.2 239.527C600.027 233.167 604.44 223.496 604.44 210.515C604.44 194.03 596.003 181.958 579.128 174.3L531.23 152.492C512.408 143.925 497.935 133.605 487.81 121.534C477.815 109.462 472.817 94.469 472.817 76.5558C472.817 52.4119 480.086 33.7199 494.625 20.4797C509.163 7.2395 529.737 0.619401 556.347 0.619401C574.91 0.619401 591.33 3.34532 605.609 8.79717C619.887 14.249 633.647 23.1407 646.887 35.4723L619.628 63.1209C608.205 53.7749 597.496 47.025 587.501 42.8712C577.636 38.5876 567.316 36.4458 556.542 36.4458C543.172 36.4458 532.788 39.691 525.389 46.1812C518.12 52.5417 514.485 62.0176 514.485 74.6087C514.485 83.5653 516.886 90.8994 521.689 96.6108C526.492 102.192 533.566 107.19 542.913 111.603L583.412 130.685C603.921 140.29 619.498 151.129 630.142 163.201C640.786 175.273 646.108 190.785 646.108 209.737C646.108 234.789 637.93 253.611 621.575 266.202C605.349 278.663 580.686 284.894 547.586 284.894ZM770.527 281V4.51358H811.026V281H770.527ZM689.528 41.5082V4.51358H892.025V41.5082H689.528Z" fill="#EE4646"/>
<path d="M1112.83 239.332L926.294 162.617V123.286L1112.83 46.5707V89.4066L968.741 141.199V144.704L1112.83 196.496V239.332ZM1403.33 239.332V196.496L1539.63 144.704V141.199L1403.33 89.4066V46.5707L1589.86 123.286V162.617L1403.33 239.332Z" fill="black"/>
<path d="M1237.83 281V4.51358H1278.33V281H1237.83ZM1156.83 41.5082V4.51358H1359.33V41.5082H1156.83Z" fill="#ED9D24"/>
</svg>
